# xmcd
#
# Track frame offsets:
#	150
#	12670
#	30042
#	45321
#	61201
#	74860
#	90252
#	104129
#	118636
#	135521
#
# Disc length: 1970 seconds
#
# Revision: 1
# Processed by: cddbd v1.5.2PL0 Copyright (c) Steve Scherf et al.
# Submitted via: EasyCDDAExtractor 4.6.0.1
#
DISCID=8007b00a
DTITLE=Orrall and Wright
DYEAR=1994
DGENRE=Country
TTITLE0=She Loves Me Like She Means It
TTITLE1=The Last Time I Loved Like That
TTITLE2=I'm Outta Here
TTITLE3=Fall Reaching
TTITLE4=What Do You Want From Me
TTITLE5=Go West Young Man
TTITLE6=You Saved Me
TTITLE7=Pound,pound,pound
TTITLE8=If You Could Say What I'm Thinking
TTITLE9=I'll Tell You When I Get There
EXTD=
EXTT0=
EXTT1=
EXTT2=
EXTT3=
EXTT4=
EXTT5=
EXTT6=
EXTT7=
EXTT8=
EXTT9=
PLAYORDER=
